<svg width="175" height="175" xmlns="http://www.w3.org/2000/svg" version="1.2" baseProfile="tiny-ps">
 <g>
  <title>The Urban India Grazing Company</title>
  <g id="grazing-board-icon">
   <!-- Outer circle - representing the board -->
   <circle cx="87.96295" cy="87.25926" r="85" fill="none" stroke="#A0826D" stroke-width="2.5" opacity="0.4" id="svg_2"/>
   <circle cx="87.96295" cy="87.25926" r="82" fill="#F5F1E8" opacity="0.3" id="svg_3"/>
   <!-- Inner decorative circle -->
   <circle cx="87.96295" cy="87.25926" r="65" fill="none" stroke="#C17A3C" stroke-width="2" opacity="0.6" id="svg_4"/>
   <!-- Food elements arranged in mandala pattern -->
   <!-- Cheese wedges (triangular shapes) -->
   <g opacity="0.8" id="svg_5">
    <path d="m87.96295,41.25926l12,12l-24,0l12,-12z" fill="#F4E4C1" stroke="#C17A3C" stroke-width="1.2" id="svg_6"/>
    <path d="m133.96295,87.25926l-12,12l0,-24l12,12z" fill="#F4E4C1" stroke="#C17A3C" stroke-width="1.2" id="svg_7"/>
    <path d="m87.96295,133.25926l-12,-12l24,0l-12,12z" fill="#F4E4C1" stroke="#C17A3C" stroke-width="1.2" id="svg_8"/>
    <path d="m41.96295,87.25926l12,-12l0,24l-12,-12z" fill="#F4E4C1" stroke="#C17A3C" stroke-width="1.2" id="svg_9"/>
   </g>
   <!-- Samosas/appetizers (diagonal triangles) -->
   <g opacity="0.85" id="svg_10">
    <path d="m120.96295,54.25926l9,9l-18,0l9,-9z" fill="#E8B962" stroke="#C17A3C" stroke-width="1.2" id="svg_11"/>
    <path d="m120.96295,120.25926l-9,-9l18,0l-9,9z" fill="#E8B962" stroke="#C17A3C" stroke-width="1.2" id="svg_12"/>
    <path d="m54.96295,120.25926l9,9l0,-18l-9,9z" fill="#E8B962" stroke="#C17A3C" stroke-width="1.2" id="svg_13"/>
    <path d="m54.96295,54.25926l-9,9l18,0l-9,-9z" fill="#E8B962" stroke="#C17A3C" stroke-width="1.2" id="svg_14"/>
   </g>
   <!-- Small garnish dots (herbs/spices) -->
   <g opacity="0.7" id="svg_15">
    <circle cx="87.96295" cy="64.25926" r="3" fill="#6B8E23" id="svg_16"/>
    <circle cx="110.96295" cy="87.25926" r="3" fill="#6B8E23" id="svg_17"/>
    <circle cx="87.96295" cy="110.25926" r="3" fill="#6B8E23" id="svg_18"/>
    <circle cx="64.96295" cy="87.25926" r="3" fill="#6B8E23" id="svg_19"/>
   </g>
   <!-- Center decorative element - small plate/bowl -->
   <circle cx="87.96295" cy="87.25926" r="12" fill="#FFFFFF" stroke="#C17A3C" stroke-width="1.8" id="svg_20"/>
   <circle cx="87.96295" cy="87.25926" r="8" fill="#C17A3C" opacity="0.3" id="svg_21"/>
  </g>
 </g>

</svg>